<svg width="18" height="19" viewBox="0 0 18 19" fill="none" xmlns="http://www.w3.org/2000/svg">
<path d="M7.5 10.5H2.25C2.05109 10.5 1.86032 10.579 1.71967 10.7197C1.57902 10.8603 1.5 11.0511 1.5 11.25V16.5C1.5 16.6989 1.57902 16.8897 1.71967 17.0303C1.86032 17.171 2.05109 17.25 2.25 17.25H7.5C7.69891 17.25 7.88968 17.171 8.03033 17.0303C8.17098 16.8897 8.25 16.6989 8.25 16.5V11.25C8.25 11.0511 8.17098 10.8603 8.03033 10.7197C7.88968 10.579 7.69891 10.5 7.5 10.5ZM6.75 15.75H3V12H6.75V15.75ZM15.75 2.25H10.5C10.3011 2.25 10.1103 2.32902 9.96967 2.46967C9.82902 2.61032 9.75 2.80109 9.75 3V8.25C9.75 8.44891 9.82902 8.63968 9.96967 8.78033C10.1103 8.92098 10.3011 9 10.5 9H15.75C15.9489 9 16.1397 8.92098 16.2803 8.78033C16.421 8.63968 16.5 8.44891 16.5 8.25V3C16.5 2.80109 16.421 2.61032 16.2803 2.46967C16.1397 2.32902 15.9489 2.25 15.75 2.25V2.25ZM15 7.5H11.25V3.75H15V7.5ZM15.75 10.5H10.5C10.3011 10.5 10.1103 10.579 9.96967 10.7197C9.82902 10.8603 9.75 11.0511 9.75 11.25V16.5C9.75 16.6989 9.82902 16.8897 9.96967 17.0303C10.1103 17.171 10.3011 17.25 10.5 17.25H15.75C15.9489 17.25 16.1397 17.171 16.2803 17.0303C16.421 16.8897 16.5 16.6989 16.5 16.5V11.25C16.5 11.0511 16.421 10.8603 16.2803 10.7197C16.1397 10.579 15.9489 10.5 15.75 10.5ZM15 15.75H11.25V12H15V15.75ZM7.5 2.25H2.25C2.05109 2.25 1.86032 2.32902 1.71967 2.46967C1.57902 2.61032 1.5 2.80109 1.5 3V8.25C1.5 8.44891 1.57902 8.63968 1.71967 8.78033C1.86032 8.92098 2.05109 9 2.25 9H7.5C7.69891 9 7.88968 8.92098 8.03033 8.78033C8.17098 8.63968 8.25 8.44891 8.25 8.25V3C8.25 2.80109 8.17098 2.61032 8.03033 2.46967C7.88968 2.32902 7.69891 2.25 7.5 2.25V2.25ZM6.75 7.5H3V3.75H6.75V7.5Z" fill="white"/>
</svg>
