<svg width="25" height="25" viewBox="0 0 25 25" fill="none" xmlns="http://www.w3.org/2000/svg">
<path d="M22.4944 19.2823C22.4944 20.9198 21.506 21.506 20.5177 21.506C19.5294 21.506 18.5411 20.9198 18.5411 19.2823C18.5411 17.6448 20.5177 15.5762 20.5177 15.5762C20.5177 15.5762 22.4944 17.6448 22.4944 19.2823Z" fill="white"/>
<path opacity="0.4" d="M13.5712 4.36517L20.5323 11.2547L17.4384 12.7857L11.2508 18.9097C10.3965 19.7553 9.01131 19.7553 8.15697 18.9097L3.51624 14.3167C3.08907 13.8939 2.87549 13.3398 2.87549 12.7857C2.87549 12.2316 3.08907 11.6775 3.51624 11.2547L10.4773 4.36517C11.3317 3.51962 12.7168 3.51962 13.5712 4.36517Z" fill="white"/>
<path d="M3.51624 14.3165L8.15697 18.9095C9.01131 19.755 10.3965 19.755 11.2508 18.9095L17.4384 12.7855H2.87549C2.87549 13.3396 3.08907 13.8937 3.51624 14.3165Z" fill="white"/>
</svg>
