<svg width="24" height="24" viewBox="0 0 24 24" fill="none" xmlns="http://www.w3.org/2000/svg">
<path opacity="0.4" d="M19.5 9.5C19.5 13.4274 14.625 19 12 19C9.375 19 4.5 13.0385 4.5 9.11111C4.5 5 8.13401 2 12 2C15.866 2 19.5 5 19.5 9.5Z" fill="white"/>
<ellipse cx="12" cy="9" rx="3" ry="3" fill="white"/>
<path fill-rule="evenodd" clip-rule="evenodd" d="M5.25024 22C5.25024 21.5858 5.58603 21.25 6.00024 21.25H18.0002C18.4145 21.25 18.7502 21.5858 18.7502 22C18.7502 22.4142 18.4145 22.75 18.0002 22.75H6.00024C5.58603 22.75 5.25024 22.4142 5.25024 22Z" fill="white"/>
</svg>
