<svg width="19" height="19" viewBox="0 0 19 19" fill="none" xmlns="http://www.w3.org/2000/svg">
<g clip-path="url(#clip0_0_1567)">
<path d="M13 16.9725H4C3.40326 16.9725 2.83097 16.7355 2.40901 16.3135C1.98705 15.8916 1.75 15.3193 1.75 14.7225V8.72253C1.75 8.52362 1.67098 8.33286 1.53033 8.1922C1.38968 8.05155 1.19891 7.97253 1 7.97253C0.801088 7.97253 0.610322 8.05155 0.46967 8.1922C0.329018 8.33286 0.25 8.52362 0.25 8.72253L0.25 14.7225C0.25 15.7171 0.645088 16.6709 1.34835 17.3742C2.05161 18.0774 3.00544 18.4725 4 18.4725H13C13.1989 18.4725 13.3897 18.3935 13.5303 18.2529C13.671 18.1122 13.75 17.9214 13.75 17.7225C13.75 17.5236 13.671 17.3329 13.5303 17.1922C13.3897 17.0516 13.1989 16.9725 13 16.9725ZM16 3.47253H5.5C4.90326 3.47253 4.33097 3.70959 3.90901 4.13154C3.48705 4.5535 3.25 5.1258 3.25 5.72253V13.2225C3.25 13.8193 3.48705 14.3916 3.90901 14.8135C4.33097 15.2355 4.90326 15.4725 5.5 15.4725H16C16.5967 15.4725 17.169 15.2355 17.591 14.8135C18.0129 14.3916 18.25 13.8193 18.25 13.2225V5.72253C18.25 5.1258 18.0129 4.5535 17.591 4.13154C17.169 3.70959 16.5967 3.47253 16 3.47253V3.47253ZM15.6925 4.97253L11.2825 9.38253C11.2128 9.45283 11.1298 9.50863 11.0384 9.5467C10.947 9.58478 10.849 9.60438 10.75 9.60438C10.651 9.60438 10.553 9.58478 10.4616 9.5467C10.3702 9.50863 10.2872 9.45283 10.2175 9.38253L5.8075 4.97253H15.6925ZM16.75 13.2225C16.75 13.4214 16.671 13.6122 16.5303 13.7529C16.3897 13.8935 16.1989 13.9725 16 13.9725H5.5C5.30109 13.9725 5.11032 13.8935 4.96967 13.7529C4.82902 13.6122 4.75 13.4214 4.75 13.2225V6.00003L9.16 10.41C9.58188 10.8314 10.1537 11.0681 10.75 11.0681C11.3463 11.0681 11.9181 10.8314 12.34 10.41L16.75 6.00003V13.2225Z" fill="white"/>
</g>
<defs>
<clipPath id="clip0_0_1567">
<rect width="18" height="18" fill="white" transform="translate(0.25 0.75)"/>
</clipPath>
</defs>
</svg>
