<svg width="19" height="18" viewBox="0 0 19 18" fill="none" xmlns="http://www.w3.org/2000/svg">
<g clip-path="url(#clip0_31_2410)">
<path d="M13.125 16.2227H4.125C3.52826 16.2227 2.95597 15.9856 2.53401 15.5636C2.11205 15.1417 1.875 14.5694 1.875 13.9727V7.97266C1.875 7.77374 1.79598 7.58298 1.65533 7.44233C1.51468 7.30167 1.32391 7.22266 1.125 7.22266C0.926088 7.22266 0.735322 7.30167 0.59467 7.44233C0.454018 7.58298 0.375 7.77374 0.375 7.97266L0.375 13.9727C0.375 14.9672 0.770088 15.921 1.47335 16.6243C2.17661 17.3276 3.13044 17.7227 4.125 17.7227H13.125C13.3239 17.7227 13.5147 17.6436 13.6553 17.503C13.796 17.3623 13.875 17.1716 13.875 16.9727C13.875 16.7737 13.796 16.583 13.6553 16.4423C13.5147 16.3017 13.3239 16.2227 13.125 16.2227ZM16.125 2.72266H5.625C5.02826 2.72266 4.45597 2.95971 4.03401 3.38167C3.61205 3.80362 3.375 4.37592 3.375 4.97266V12.4727C3.375 13.0694 3.61205 13.6417 4.03401 14.0636C4.45597 14.4856 5.02826 14.7227 5.625 14.7227H16.125C16.7217 14.7227 17.294 14.4856 17.716 14.0636C18.1379 13.6417 18.375 13.0694 18.375 12.4727V4.97266C18.375 4.37592 18.1379 3.80362 17.716 3.38167C17.294 2.95971 16.7217 2.72266 16.125 2.72266V2.72266ZM15.8175 4.22266L11.4075 8.63266C11.3378 8.70295 11.2548 8.75875 11.1634 8.79682C11.072 8.8349 10.974 8.85451 10.875 8.85451C10.776 8.85451 10.678 8.8349 10.5866 8.79682C10.4952 8.75875 10.4122 8.70295 10.3425 8.63266L5.9325 4.22266H15.8175ZM16.875 12.4727C16.875 12.6716 16.796 12.8623 16.6553 13.003C16.5147 13.1436 16.3239 13.2227 16.125 13.2227H5.625C5.42609 13.2227 5.23532 13.1436 5.09467 13.003C4.95402 12.8623 4.875 12.6716 4.875 12.4727V5.25016L9.285 9.66016C9.70688 10.0815 10.2787 10.3182 10.875 10.3182C11.4713 10.3182 12.0431 10.0815 12.465 9.66016L16.875 5.25016V12.4727Z" fill="white"/>
</g>
<defs>
<clipPath id="clip0_31_2410">
<rect width="18" height="18" fill="white" transform="translate(0.375)"/>
</clipPath>
</defs>
</svg>
