<svg width="19" height="18" viewBox="0 0 19 18" fill="none" xmlns="http://www.w3.org/2000/svg">
<path d="M9.6 9.165C10.0002 8.8186 10.3212 8.39016 10.5412 7.90877C10.7611 7.42737 10.875 6.90428 10.875 6.375C10.875 5.38044 10.4799 4.42661 9.77665 3.72335C9.07339 3.02009 8.11956 2.625 7.125 2.625C6.13044 2.625 5.17661 3.02009 4.47335 3.72335C3.77009 4.42661 3.375 5.38044 3.375 6.375C3.37499 6.90428 3.48885 7.42737 3.70884 7.90877C3.92884 8.39016 4.24982 8.8186 4.65 9.165C3.6001 9.64041 2.70935 10.4081 2.08424 11.3764C1.45912 12.3447 1.1261 13.4725 1.125 14.625C1.125 14.8239 1.20402 15.0147 1.34467 15.1553C1.48532 15.296 1.67609 15.375 1.875 15.375C2.07391 15.375 2.26468 15.296 2.40533 15.1553C2.54598 15.0147 2.625 14.8239 2.625 14.625C2.625 13.4315 3.09911 12.2869 3.94302 11.443C4.78693 10.5991 5.93153 10.125 7.125 10.125C8.31847 10.125 9.46307 10.5991 10.307 11.443C11.1509 12.2869 11.625 13.4315 11.625 14.625C11.625 14.8239 11.704 15.0147 11.8447 15.1553C11.9853 15.296 12.1761 15.375 12.375 15.375C12.5739 15.375 12.7647 15.296 12.9053 15.1553C13.046 15.0147 13.125 14.8239 13.125 14.625C13.1239 13.4725 12.7909 12.3447 12.1658 11.3764C11.5407 10.4081 10.6499 9.64041 9.6 9.165V9.165ZM7.125 8.625C6.67999 8.625 6.24498 8.49304 5.87497 8.24581C5.50496 7.99857 5.21657 7.64717 5.04627 7.23604C4.87597 6.8249 4.83142 6.3725 4.91823 5.93605C5.00505 5.49959 5.21934 5.09868 5.53401 4.78401C5.84868 4.46934 6.24959 4.25505 6.68605 4.16823C7.1225 4.08142 7.5749 4.12597 7.98604 4.29627C8.39717 4.46657 8.74857 4.75496 8.99581 5.12497C9.24304 5.49498 9.375 5.92999 9.375 6.375C9.375 6.97174 9.13795 7.54403 8.71599 7.96599C8.29403 8.38795 7.72174 8.625 7.125 8.625ZM14.43 8.865C14.91 8.3245 15.2235 7.65679 15.3329 6.94225C15.4422 6.22772 15.3427 5.49681 15.0463 4.8375C14.75 4.17819 14.2693 3.6186 13.6624 3.22607C13.0554 2.83354 12.3479 2.62481 11.625 2.625C11.4261 2.625 11.2353 2.70402 11.0947 2.84467C10.954 2.98532 10.875 3.17609 10.875 3.375C10.875 3.57391 10.954 3.76468 11.0947 3.90533C11.2353 4.04598 11.4261 4.125 11.625 4.125C12.2217 4.125 12.794 4.36205 13.216 4.78401C13.6379 5.20597 13.875 5.77826 13.875 6.375C13.8739 6.76893 13.7695 7.15568 13.572 7.49657C13.3746 7.83745 13.0912 8.12054 12.75 8.3175C12.6388 8.38164 12.5459 8.47325 12.4803 8.58356C12.4146 8.69386 12.3784 8.81918 12.375 8.9475C12.3719 9.07482 12.4012 9.20085 12.4602 9.31369C12.5193 9.42654 12.6061 9.52249 12.7125 9.5925L13.005 9.7875L13.1025 9.84C14.0065 10.2688 14.7692 10.947 15.3007 11.7947C15.8322 12.6425 16.1104 13.6245 16.1025 14.625C16.1025 14.8239 16.1815 15.0147 16.3222 15.1553C16.4628 15.296 16.6536 15.375 16.8525 15.375C17.0514 15.375 17.2422 15.296 17.3828 15.1553C17.5235 15.0147 17.6025 14.8239 17.6025 14.625C17.6086 13.4741 17.3204 12.3407 16.7651 11.3325C16.2098 10.3244 15.406 9.47498 14.43 8.865V8.865Z" fill="white"/>
</svg>
