<svg width="19" height="18" viewBox="0 0 19 18" fill="none" xmlns="http://www.w3.org/2000/svg">
<path d="M16.865 7.1625L15.4475 6.69L16.115 5.355C16.1827 5.21527 16.2053 5.05798 16.1798 4.90483C16.1543 4.75169 16.0818 4.61024 15.9725 4.5L14.375 2.9025C14.2642 2.79157 14.1214 2.71816 13.9667 2.6926C13.812 2.66704 13.6531 2.69061 13.5125 2.76L12.1775 3.4275L11.705 2.01C11.6551 1.86225 11.5604 1.73372 11.434 1.64231C11.3077 1.55091 11.156 1.50116 11 1.5H8.75C8.59277 1.4996 8.43939 1.54862 8.31153 1.64013C8.18368 1.73165 8.08782 1.86104 8.0375 2.01L7.565 3.4275L6.23 2.76C6.09027 2.69234 5.93298 2.66971 5.77983 2.69523C5.62669 2.72075 5.48524 2.79318 5.375 2.9025L3.7775 4.5C3.66657 4.61083 3.59316 4.75363 3.5676 4.90834C3.54204 5.06305 3.56561 5.22189 3.635 5.3625L4.3025 6.6975L2.885 7.17C2.73725 7.2199 2.60872 7.31462 2.51731 7.44098C2.42591 7.56734 2.37616 7.71905 2.375 7.875V10.125C2.3746 10.2822 2.42362 10.4356 2.51513 10.5635C2.60665 10.6913 2.73604 10.7872 2.885 10.8375L4.3025 11.31L3.635 12.645C3.56734 12.7847 3.54471 12.942 3.57023 13.0952C3.59575 13.2483 3.66818 13.3898 3.7775 13.5L5.375 15.0975C5.48583 15.2084 5.62863 15.2818 5.78334 15.3074C5.93805 15.333 6.09689 15.3094 6.2375 15.24L7.5725 14.5725L8.045 15.99C8.09532 16.139 8.19118 16.2684 8.31903 16.3599C8.44689 16.4514 8.60027 16.5004 8.7575 16.5H11.0075C11.1647 16.5004 11.3181 16.4514 11.446 16.3599C11.5738 16.2684 11.6697 16.139 11.72 15.99L12.1925 14.5725L13.5275 15.24C13.6663 15.306 13.8221 15.3277 13.9737 15.3022C14.1253 15.2767 14.2654 15.2052 14.375 15.0975L15.9725 13.5C16.0834 13.3892 16.1568 13.2464 16.1824 13.0917C16.208 12.937 16.1844 12.7781 16.115 12.6375L15.4475 11.3025L16.865 10.83C17.0128 10.7801 17.1413 10.6854 17.2327 10.559C17.3241 10.4327 17.3738 10.281 17.375 10.125V7.875C17.3754 7.71777 17.3264 7.56439 17.2349 7.43653C17.1434 7.30868 17.014 7.21282 16.865 7.1625ZM15.875 9.585L14.975 9.885C14.768 9.95213 14.5782 10.0635 14.4185 10.2113C14.2589 10.3592 14.1334 10.54 14.0506 10.7412C13.9678 10.9424 13.9298 11.1592 13.9392 11.3766C13.9486 11.594 14.0052 11.8067 14.105 12L14.5325 12.855L13.7075 13.68L12.875 13.23C12.6827 13.1342 12.472 13.0808 12.2572 13.0735C12.0425 13.0662 11.8287 13.1051 11.6302 13.1875C11.4318 13.27 11.2535 13.3942 11.1072 13.5516C10.9609 13.7091 10.8502 13.8961 10.7825 14.1L10.4825 15H9.29L8.99 14.1C8.92287 13.893 8.81152 13.7032 8.66368 13.5435C8.51583 13.3839 8.33503 13.2584 8.13382 13.1756C7.9326 13.0928 7.71579 13.0548 7.49842 13.0642C7.28105 13.0736 7.06833 13.1302 6.875 13.23L6.02 13.6575L5.195 12.8325L5.645 12C5.74482 11.8067 5.80139 11.594 5.81079 11.3766C5.82018 11.1592 5.78218 10.9424 5.69941 10.7412C5.61664 10.54 5.49109 10.3592 5.33146 10.2113C5.17184 10.0635 4.98196 9.95213 4.775 9.885L3.875 9.585V8.415L4.775 8.115C4.98196 8.04787 5.17184 7.93652 5.33146 7.78868C5.49109 7.64083 5.61664 7.46003 5.69941 7.25882C5.78218 7.0576 5.82018 6.84079 5.81079 6.62342C5.80139 6.40605 5.74482 6.19333 5.645 6L5.2175 5.1675L6.0425 4.3425L6.875 4.77C7.06833 4.86982 7.28105 4.92639 7.49842 4.93579C7.71579 4.94518 7.9326 4.90718 8.13382 4.82441C8.33503 4.74164 8.51583 4.61609 8.66368 4.45646C8.81152 4.29684 8.92287 4.10696 8.99 3.9L9.29 3H10.46L10.76 3.9C10.8271 4.10696 10.9385 4.29684 11.0863 4.45646C11.2342 4.61609 11.415 4.74164 11.6162 4.82441C11.8174 4.90718 12.0342 4.94518 12.2516 4.93579C12.469 4.92639 12.6817 4.86982 12.875 4.77L13.73 4.3425L14.555 5.1675L14.105 6C14.0092 6.19234 13.9558 6.40301 13.9485 6.61777C13.9412 6.83253 13.9801 7.04635 14.0625 7.24476C14.145 7.44318 14.2692 7.62155 14.4266 7.76781C14.5841 7.91407 14.7711 8.0248 14.975 8.0925L15.875 8.3925V9.585ZM9.875 6C9.28166 6 8.70164 6.17595 8.20829 6.50559C7.71494 6.83524 7.33043 7.30377 7.10336 7.85195C6.8763 8.40013 6.81689 9.00333 6.93265 9.58527C7.0484 10.1672 7.33412 10.7018 7.75368 11.1213C8.17324 11.5409 8.70779 11.8266 9.28973 11.9424C9.87167 12.0581 10.4749 11.9987 11.0231 11.7716C11.5712 11.5446 12.0398 11.1601 12.3694 10.6667C12.6991 10.1734 12.875 9.59335 12.875 9C12.875 8.20435 12.5589 7.44129 11.9963 6.87868C11.4337 6.31607 10.6707 6 9.875 6V6ZM9.875 10.5C9.57833 10.5 9.28832 10.412 9.04165 10.2472C8.79497 10.0824 8.60271 9.84812 8.48918 9.57403C8.37565 9.29994 8.34595 8.99834 8.40382 8.70737C8.4617 8.4164 8.60456 8.14912 8.81434 7.93934C9.02412 7.72956 9.2914 7.5867 9.58237 7.52882C9.87334 7.47095 10.1749 7.50065 10.449 7.61418C10.7231 7.72771 10.9574 7.91997 11.1222 8.16665C11.287 8.41332 11.375 8.70333 11.375 9C11.375 9.39783 11.217 9.77936 10.9357 10.0607C10.6544 10.342 10.2728 10.5 9.875 10.5Z" fill="white"/>
</svg>
