<svg width="49" height="48" viewBox="0 0 49 48" fill="none" xmlns="http://www.w3.org/2000/svg">
<circle cx="24.875" cy="24" r="24" fill="#DCFCE7"/>
<rect x="0.875" width="48" height="48" rx="4.5" fill="#FFC60B"/>
<path d="M32.1575 20.4679C32.0877 20.3976 32.0048 20.3419 31.9134 20.3038C31.822 20.2657 31.724 20.2461 31.625 20.2461C31.5259 20.2461 31.4279 20.2657 31.3365 20.3038C31.2451 20.3419 31.1622 20.3976 31.0925 20.4679L26.375 25.1929L23.1575 21.9679C23.0877 21.8976 23.0048 21.8419 22.9134 21.8038C22.822 21.7657 22.724 21.7461 22.625 21.7461C22.5259 21.7461 22.4279 21.7657 22.3365 21.8038C22.2451 21.8419 22.1622 21.8976 22.0925 21.9679L17.5925 26.4679C17.5222 26.5377 17.4664 26.6206 17.4283 26.712C17.3902 26.8034 17.3706 26.9014 17.3706 27.0004C17.3706 27.0995 17.3902 27.1975 17.4283 27.2889C17.4664 27.3803 17.5222 27.4632 17.5925 27.5329C17.6622 27.6032 17.7451 27.659 17.8365 27.6971C17.9279 27.7352 18.0259 27.7548 18.125 27.7548C18.224 27.7548 18.322 27.7352 18.4134 27.6971C18.5048 27.659 18.5877 27.6032 18.6575 27.5329L22.625 23.5579L25.8425 26.7829C25.9122 26.8532 25.9951 26.909 26.0865 26.9471C26.1779 26.9852 26.2759 27.0048 26.375 27.0048C26.474 27.0048 26.572 26.9852 26.6634 26.9471C26.7548 26.909 26.8377 26.8532 26.9075 26.7829L32.1575 21.5329C32.2277 21.4632 32.2835 21.3803 32.3216 21.2889C32.3597 21.1975 32.3793 21.0995 32.3793 21.0004C32.3793 20.9014 32.3597 20.8034 32.3216 20.712C32.2835 20.6206 32.2277 20.5377 32.1575 20.4679V20.4679Z" fill="white"/>
</svg>
