<svg width="18" height="19" viewBox="0 0 18 19" fill="none" xmlns="http://www.w3.org/2000/svg">
<path d="M3.75 14.25H6.93C7.0287 14.2505 7.12655 14.2316 7.21793 14.1943C7.30931 14.157 7.39242 14.102 7.4625 14.0325L12.6525 8.83495L14.7825 6.74995C14.8528 6.68023 14.9086 6.59728 14.9467 6.50589C14.9847 6.41449 15.0043 6.31646 15.0043 6.21745C15.0043 6.11845 14.9847 6.02042 14.9467 5.92902C14.9086 5.83763 14.8528 5.75468 14.7825 5.68495L11.6025 2.46745C11.5328 2.39716 11.4498 2.34136 11.3584 2.30329C11.267 2.26521 11.169 2.24561 11.07 2.24561C10.971 2.24561 10.873 2.26521 10.7816 2.30329C10.6902 2.34136 10.6072 2.39716 10.5375 2.46745L8.4225 4.58995L3.2175 9.78745C3.14799 9.85753 3.093 9.94065 3.05567 10.032C3.01835 10.1234 2.99943 10.2212 3 10.32V13.5C3 13.6989 3.07902 13.8896 3.21967 14.0303C3.36032 14.1709 3.55109 14.25 3.75 14.25ZM11.07 4.05745L13.1925 6.17995L12.1275 7.24495L10.005 5.12245L11.07 4.05745ZM4.5 10.6275L8.9475 6.17995L11.07 8.30245L6.6225 12.75H4.5V10.6275ZM15.75 15.75H2.25C2.05109 15.75 1.86032 15.829 1.71967 15.9696C1.57902 16.1103 1.5 16.301 1.5 16.5C1.5 16.6989 1.57902 16.8896 1.71967 17.0303C1.86032 17.1709 2.05109 17.25 2.25 17.25H15.75C15.9489 17.25 16.1397 17.1709 16.2803 17.0303C16.421 16.8896 16.5 16.6989 16.5 16.5C16.5 16.301 16.421 16.1103 16.2803 15.9696C16.1397 15.829 15.9489 15.75 15.75 15.75Z" fill="white"/>
</svg>
