<svg width="19" height="18" viewBox="0 0 19 18" fill="none" xmlns="http://www.w3.org/2000/svg">
<path d="M4.125 13.5004H7.305C7.4037 13.501 7.50155 13.4821 7.59293 13.4448C7.68431 13.4074 7.76742 13.3525 7.8375 13.2829L13.0275 8.08544L15.1575 6.00044C15.2278 5.93072 15.2836 5.84777 15.3217 5.75638C15.3597 5.66498 15.3793 5.56695 15.3793 5.46794C15.3793 5.36893 15.3597 5.2709 15.3217 5.17951C15.2836 5.08812 15.2278 5.00516 15.1575 4.93544L11.9775 1.71794C11.9078 1.64765 11.8248 1.59185 11.7334 1.55377C11.642 1.5157 11.544 1.49609 11.445 1.49609C11.346 1.49609 11.248 1.5157 11.1566 1.55377C11.0652 1.59185 10.9822 1.64765 10.9125 1.71794L8.7975 3.84044L3.5925 9.03794C3.52299 9.10802 3.468 9.19113 3.43067 9.28251C3.39335 9.37389 3.37443 9.47174 3.375 9.57044V12.7504C3.375 12.9494 3.45402 13.1401 3.59467 13.2808C3.73532 13.4214 3.92609 13.5004 4.125 13.5004ZM11.445 3.30794L13.5675 5.43044L12.5025 6.49544L10.38 4.37294L11.445 3.30794ZM4.875 9.87794L9.3225 5.43044L11.445 7.55294L6.9975 12.0004H4.875V9.87794ZM16.125 15.0004H2.625C2.42609 15.0004 2.23532 15.0795 2.09467 15.2201C1.95402 15.3608 1.875 15.5515 1.875 15.7504C1.875 15.9494 1.95402 16.1401 2.09467 16.2808C2.23532 16.4214 2.42609 16.5004 2.625 16.5004H16.125C16.3239 16.5004 16.5147 16.4214 16.6553 16.2808C16.796 16.1401 16.875 15.9494 16.875 15.7504C16.875 15.5515 16.796 15.3608 16.6553 15.2201C16.5147 15.0795 16.3239 15.0004 16.125 15.0004Z" fill="white"/>
</svg>
