<svg width="49" height="49" viewBox="0 0 49 49" fill="none" xmlns="http://www.w3.org/2000/svg">
<circle cx="24.5" cy="24.75" r="24" fill="#DCFCE7"/>
<rect x="0.5" y="0.75" width="48" height="48" rx="4.5" fill="#FFC60B"/>
<path d="M31.7829 21.2175C31.7132 21.1472 31.6303 21.0914 31.5389 21.0533C31.4475 21.0152 31.3495 20.9956 31.2504 20.9956C31.1514 20.9956 31.0534 21.0152 30.962 21.0533C30.8706 21.0914 30.7877 21.1472 30.7179 21.2175L26.0004 25.9425L22.7829 22.7175C22.7132 22.6472 22.6303 22.5914 22.5389 22.5533C22.4475 22.5152 22.3495 22.4956 22.2504 22.4956C22.1514 22.4956 22.0534 22.5152 21.962 22.5533C21.8706 22.5914 21.7877 22.6472 21.7179 22.7175L17.2179 27.2175C17.1476 27.2872 17.0919 27.3701 17.0538 27.4615C17.0157 27.5529 16.9961 27.6509 16.9961 27.75C16.9961 27.849 17.0157 27.947 17.0538 28.0384C17.0919 28.1298 17.1476 28.2127 17.2179 28.2825C17.2877 28.3527 17.3706 28.4085 17.462 28.4466C17.5534 28.4847 17.6514 28.5043 17.7504 28.5043C17.8495 28.5043 17.9475 28.4847 18.0389 28.4466C18.1303 28.4085 18.2132 28.3527 18.2829 28.2825L22.2504 24.3075L25.4679 27.5325C25.5377 27.6028 25.6206 27.6585 25.712 27.6966C25.8034 27.7347 25.9014 27.7543 26.0004 27.7543C26.0995 27.7543 26.1975 27.7347 26.2889 27.6966C26.3803 27.6585 26.4632 27.6028 26.5329 27.5325L31.7829 22.2825C31.8532 22.2127 31.909 22.1298 31.9471 22.0384C31.9852 21.947 32.0048 21.849 32.0048 21.75C32.0048 21.6509 31.9852 21.5529 31.9471 21.4615C31.909 21.3701 31.8532 21.2872 31.7829 21.2175V21.2175Z" fill="white"/>
</svg>
