<svg width="19" height="18" viewBox="0 0 19 18" fill="none" xmlns="http://www.w3.org/2000/svg">
<path d="M8.375 9.75H3.125C2.92609 9.75 2.73532 9.82902 2.59467 9.96967C2.45402 10.1103 2.375 10.3011 2.375 10.5V15.75C2.375 15.9489 2.45402 16.1397 2.59467 16.2803C2.73532 16.421 2.92609 16.5 3.125 16.5H8.375C8.57391 16.5 8.76468 16.421 8.90533 16.2803C9.04598 16.1397 9.125 15.9489 9.125 15.75V10.5C9.125 10.3011 9.04598 10.1103 8.90533 9.96967C8.76468 9.82902 8.57391 9.75 8.375 9.75ZM7.625 15H3.875V11.25H7.625V15ZM16.625 1.5H11.375C11.1761 1.5 10.9853 1.57902 10.8447 1.71967C10.704 1.86032 10.625 2.05109 10.625 2.25V7.5C10.625 7.69891 10.704 7.88968 10.8447 8.03033C10.9853 8.17098 11.1761 8.25 11.375 8.25H16.625C16.8239 8.25 17.0147 8.17098 17.1553 8.03033C17.296 7.88968 17.375 7.69891 17.375 7.5V2.25C17.375 2.05109 17.296 1.86032 17.1553 1.71967C17.0147 1.57902 16.8239 1.5 16.625 1.5V1.5ZM15.875 6.75H12.125V3H15.875V6.75ZM16.625 9.75H11.375C11.1761 9.75 10.9853 9.82902 10.8447 9.96967C10.704 10.1103 10.625 10.3011 10.625 10.5V15.75C10.625 15.9489 10.704 16.1397 10.8447 16.2803C10.9853 16.421 11.1761 16.5 11.375 16.5H16.625C16.8239 16.5 17.0147 16.421 17.1553 16.2803C17.296 16.1397 17.375 15.9489 17.375 15.75V10.5C17.375 10.3011 17.296 10.1103 17.1553 9.96967C17.0147 9.82902 16.8239 9.75 16.625 9.75ZM15.875 15H12.125V11.25H15.875V15ZM8.375 1.5H3.125C2.92609 1.5 2.73532 1.57902 2.59467 1.71967C2.45402 1.86032 2.375 2.05109 2.375 2.25V7.5C2.375 7.69891 2.45402 7.88968 2.59467 8.03033C2.73532 8.17098 2.92609 8.25 3.125 8.25H8.375C8.57391 8.25 8.76468 8.17098 8.90533 8.03033C9.04598 7.88968 9.125 7.69891 9.125 7.5V2.25C9.125 2.05109 9.04598 1.86032 8.90533 1.71967C8.76468 1.57902 8.57391 1.5 8.375 1.5V1.5ZM7.625 6.75H3.875V3H7.625V6.75Z" fill="white"/>
</svg>
