<svg width="25" height="25" viewBox="0 0 25 25" fill="none" xmlns="http://www.w3.org/2000/svg">
<path opacity="0.4" d="M11.9504 6.1271C9.85155 4.65638 6.90599 3.98989 4.71356 3.74215C3.62849 3.61954 2.74255 4.52563 2.74255 5.64355V16.7766C2.74255 17.8945 3.62849 18.8009 4.71356 18.9235C6.90599 19.1713 9.85155 19.8378 11.9504 21.3085C12.1521 21.4498 12.3888 21.5205 12.6256 21.5205V6.33909C12.3888 6.33909 12.1521 6.26843 11.9504 6.1271Z" fill="white"/>
<path fill-rule="evenodd" clip-rule="evenodd" d="M4.97515 8.81061C5.0378 8.40606 5.41654 8.1289 5.82108 8.19156C7.10862 8.39096 8.55861 8.72424 9.9282 9.25387C10.31 9.40151 10.4998 9.83073 10.3522 10.2125C10.2045 10.5944 9.77533 10.7842 9.39352 10.6365C8.14959 10.1555 6.80861 9.84462 5.5942 9.65655C5.18965 9.5939 4.91249 9.21516 4.97515 8.81061Z" fill="white"/>
<path fill-rule="evenodd" clip-rule="evenodd" d="M4.97515 12.7638C5.0378 12.3593 5.41654 12.0821 5.82108 12.1448C6.4731 12.2457 7.16486 12.3808 7.86558 12.5576C8.26251 12.6577 8.5031 13.0607 8.40296 13.4576C8.30281 13.8545 7.89985 14.0951 7.50292 13.995C6.85223 13.8308 6.2062 13.7045 5.5942 13.6098C5.18965 13.5471 4.91249 13.1684 4.97515 12.7638Z" fill="white"/>
<path d="M13.3008 6.1271C15.3997 4.65638 18.3452 3.98989 20.5376 3.74215C21.6227 3.61954 22.5086 4.52563 22.5086 5.64355V16.7766C22.5086 17.8945 21.6227 18.8009 20.5376 18.9235C18.3452 19.1713 15.3997 19.8378 13.3008 21.3085C13.0991 21.4498 12.8624 21.5205 12.6256 21.5205V6.33909C12.8624 6.33909 13.0991 6.26843 13.3008 6.1271Z" fill="white"/>
</svg>
