<svg width="19" height="19" viewBox="0 0 19 19" fill="none" xmlns="http://www.w3.org/2000/svg">
<path d="M16.49 7.9125L15.0725 7.44L15.74 6.105C15.8077 5.96527 15.8303 5.80798 15.8048 5.65483C15.7793 5.50169 15.7068 5.36024 15.5975 5.25L14 3.6525C13.8892 3.54157 13.7464 3.46816 13.5917 3.4426C13.437 3.41704 13.2781 3.44061 13.1375 3.51L11.8025 4.1775L11.33 2.76C11.2801 2.61225 11.1854 2.48372 11.059 2.39231C10.9327 2.30091 10.781 2.25116 10.625 2.25H8.375C8.21777 2.2496 8.06439 2.29862 7.93653 2.39013C7.80868 2.48165 7.71282 2.61104 7.6625 2.76L7.19 4.1775L5.855 3.51C5.71527 3.44234 5.55798 3.41971 5.40483 3.44523C5.25169 3.47075 5.11024 3.54318 5 3.6525L3.4025 5.25C3.29157 5.36083 3.21816 5.50363 3.1926 5.65834C3.16704 5.81305 3.19061 5.97189 3.26 6.1125L3.9275 7.4475L2.51 7.92C2.36225 7.9699 2.23372 8.06462 2.14231 8.19098C2.05091 8.31734 2.00116 8.46905 2 8.625V10.875C1.9996 11.0322 2.04862 11.1856 2.14013 11.3135C2.23165 11.4413 2.36104 11.5372 2.51 11.5875L3.9275 12.06L3.26 13.395C3.19234 13.5347 3.16971 13.692 3.19523 13.8452C3.22075 13.9983 3.29318 14.1398 3.4025 14.25L5 15.8475C5.11083 15.9584 5.25363 16.0318 5.40834 16.0574C5.56305 16.083 5.72189 16.0594 5.8625 15.99L7.1975 15.3225L7.67 16.74C7.72032 16.889 7.81618 17.0184 7.94403 17.1099C8.07189 17.2014 8.22527 17.2504 8.3825 17.25H10.6325C10.7897 17.2504 10.9431 17.2014 11.071 17.1099C11.1988 17.0184 11.2947 16.889 11.345 16.74L11.8175 15.3225L13.1525 15.99C13.2913 16.056 13.4471 16.0777 13.5987 16.0522C13.7503 16.0267 13.8904 15.9552 14 15.8475L15.5975 14.25C15.7084 14.1392 15.7818 13.9964 15.8074 13.8417C15.833 13.687 15.8094 13.5281 15.74 13.3875L15.0725 12.0525L16.49 11.58C16.6378 11.5301 16.7663 11.4354 16.8577 11.309C16.9491 11.1827 16.9988 11.031 17 10.875V8.625C17.0004 8.46777 16.9514 8.31439 16.8599 8.18653C16.7684 8.05868 16.639 7.96282 16.49 7.9125ZM15.5 10.335L14.6 10.635C14.393 10.7021 14.2032 10.8135 14.0435 10.9613C13.8839 11.1092 13.7584 11.29 13.6756 11.4912C13.5928 11.6924 13.5548 11.9092 13.5642 12.1266C13.5736 12.344 13.6302 12.5567 13.73 12.75L14.1575 13.605L13.3325 14.43L12.5 13.98C12.3077 13.8842 12.097 13.8308 11.8822 13.8235C11.6675 13.8162 11.4537 13.8551 11.2552 13.9375C11.0568 14.02 10.8785 14.1442 10.7322 14.3016C10.5859 14.4591 10.4752 14.6461 10.4075 14.85L10.1075 15.75H8.915L8.615 14.85C8.54787 14.643 8.43652 14.4532 8.28868 14.2935C8.14083 14.1339 7.96003 14.0084 7.75882 13.9256C7.5576 13.8428 7.34079 13.8048 7.12342 13.8142C6.90605 13.8236 6.69333 13.8802 6.5 13.98L5.645 14.4075L4.82 13.5825L5.27 12.75C5.36982 12.5567 5.42639 12.344 5.43579 12.1266C5.44518 11.9092 5.40718 11.6924 5.32441 11.4912C5.24164 11.29 5.11609 11.1092 4.95646 10.9613C4.79684 10.8135 4.60696 10.7021 4.4 10.635L3.5 10.335V9.165L4.4 8.865C4.60696 8.79787 4.79684 8.68652 4.95646 8.53868C5.11609 8.39083 5.24164 8.21003 5.32441 8.00882C5.40718 7.8076 5.44518 7.59079 5.43579 7.37342C5.42639 7.15605 5.36982 6.94333 5.27 6.75L4.8425 5.9175L5.6675 5.0925L6.5 5.52C6.69333 5.61982 6.90605 5.67639 7.12342 5.68579C7.34079 5.69518 7.5576 5.65718 7.75882 5.57441C7.96003 5.49164 8.14083 5.36609 8.28868 5.20646C8.43652 5.04684 8.54787 4.85696 8.615 4.65L8.915 3.75H10.085L10.385 4.65C10.4521 4.85696 10.5635 5.04684 10.7113 5.20646C10.8592 5.36609 11.04 5.49164 11.2412 5.57441C11.4424 5.65718 11.6592 5.69518 11.8766 5.68579C12.094 5.67639 12.3067 5.61982 12.5 5.52L13.355 5.0925L14.18 5.9175L13.73 6.75C13.6342 6.94234 13.5808 7.15301 13.5735 7.36777C13.5662 7.58253 13.6051 7.79635 13.6875 7.99476C13.77 8.19318 13.8942 8.37155 14.0516 8.51781C14.2091 8.66407 14.3961 8.7748 14.6 8.8425L15.5 9.1425V10.335ZM9.5 6.75C8.90666 6.75 8.32664 6.92595 7.83329 7.25559C7.33994 7.58524 6.95543 8.05377 6.72836 8.60195C6.5013 9.15013 6.44189 9.75333 6.55765 10.3353C6.6734 10.9172 6.95912 11.4518 7.37868 11.8713C7.79824 12.2909 8.33279 12.5766 8.91473 12.6924C9.49667 12.8081 10.0999 12.7487 10.6481 12.5216C11.1962 12.2946 11.6648 11.9101 11.9944 11.4167C12.3241 10.9234 12.5 10.3433 12.5 9.75C12.5 8.95435 12.1839 8.19129 11.6213 7.62868C11.0587 7.06607 10.2957 6.75 9.5 6.75V6.75ZM9.5 11.25C9.20333 11.25 8.91332 11.162 8.66665 10.9972C8.41997 10.8324 8.22771 10.5981 8.11418 10.324C8.00065 10.0499 7.97095 9.74834 8.02882 9.45737C8.0867 9.1664 8.22956 8.89912 8.43934 8.68934C8.64912 8.47956 8.9164 8.3367 9.20737 8.27882C9.49834 8.22095 9.79994 8.25065 10.074 8.36418C10.3481 8.47771 10.5824 8.66997 10.7472 8.91665C10.912 9.16332 11 9.45333 11 9.75C11 10.1478 10.842 10.5294 10.5607 10.8107C10.2794 11.092 9.89783 11.25 9.5 11.25Z" fill="white"/>
</svg>
