<svg width="19" height="19" viewBox="0 0 19 19" fill="none" xmlns="http://www.w3.org/2000/svg">
<path d="M9.475 9.915C9.87518 9.5686 10.1962 9.14016 10.4162 8.65877C10.6361 8.17737 10.75 7.65428 10.75 7.125C10.75 6.13044 10.3549 5.17661 9.65165 4.47335C8.94839 3.77009 7.99456 3.375 7 3.375C6.00544 3.375 5.05161 3.77009 4.34835 4.47335C3.64509 5.17661 3.25 6.13044 3.25 7.125C3.24999 7.65428 3.36385 8.17737 3.58384 8.65877C3.80384 9.14016 4.12482 9.5686 4.525 9.915C3.4751 10.3904 2.58435 11.1581 1.95924 12.1264C1.33412 13.0947 1.0011 14.2225 1 15.375C1 15.5739 1.07902 15.7647 1.21967 15.9053C1.36032 16.046 1.55109 16.125 1.75 16.125C1.94891 16.125 2.13968 16.046 2.28033 15.9053C2.42098 15.7647 2.5 15.5739 2.5 15.375C2.5 14.1815 2.97411 13.0369 3.81802 12.193C4.66193 11.3491 5.80653 10.875 7 10.875C8.19347 10.875 9.33807 11.3491 10.182 12.193C11.0259 13.0369 11.5 14.1815 11.5 15.375C11.5 15.5739 11.579 15.7647 11.7197 15.9053C11.8603 16.046 12.0511 16.125 12.25 16.125C12.4489 16.125 12.6397 16.046 12.7803 15.9053C12.921 15.7647 13 15.5739 13 15.375C12.9989 14.2225 12.6659 13.0947 12.0408 12.1264C11.4157 11.1581 10.5249 10.3904 9.475 9.915V9.915ZM7 9.375C6.55499 9.375 6.11998 9.24304 5.74997 8.99581C5.37996 8.74857 5.09157 8.39717 4.92127 7.98604C4.75097 7.5749 4.70642 7.1225 4.79323 6.68605C4.88005 6.24959 5.09434 5.84868 5.40901 5.53401C5.72368 5.21934 6.12459 5.00505 6.56105 4.91823C6.9975 4.83142 7.4499 4.87597 7.86104 5.04627C8.27217 5.21657 8.62357 5.50496 8.87081 5.87497C9.11804 6.24498 9.25 6.67999 9.25 7.125C9.25 7.72174 9.01295 8.29403 8.59099 8.71599C8.16903 9.13795 7.59674 9.375 7 9.375ZM14.305 9.615C14.785 9.0745 15.0985 8.40679 15.2079 7.69225C15.3172 6.97772 15.2177 6.24681 14.9213 5.5875C14.625 4.92819 14.1443 4.3686 13.5374 3.97607C12.9304 3.58354 12.2229 3.37481 11.5 3.375C11.3011 3.375 11.1103 3.45402 10.9697 3.59467C10.829 3.73532 10.75 3.92609 10.75 4.125C10.75 4.32391 10.829 4.51468 10.9697 4.65533C11.1103 4.79598 11.3011 4.875 11.5 4.875C12.0967 4.875 12.669 5.11205 13.091 5.53401C13.5129 5.95597 13.75 6.52826 13.75 7.125C13.7489 7.51893 13.6445 7.90568 13.447 8.24657C13.2496 8.58745 12.9662 8.87054 12.625 9.0675C12.5138 9.13164 12.4209 9.22325 12.3553 9.33356C12.2896 9.44386 12.2534 9.56918 12.25 9.6975C12.2469 9.82482 12.2762 9.95085 12.3352 10.0637C12.3943 10.1765 12.4811 10.2725 12.5875 10.3425L12.88 10.5375L12.9775 10.59C13.8815 11.0188 14.6442 11.697 15.1757 12.5447C15.7072 13.3925 15.9854 14.3745 15.9775 15.375C15.9775 15.5739 16.0565 15.7647 16.1972 15.9053C16.3378 16.046 16.5286 16.125 16.7275 16.125C16.9264 16.125 17.1172 16.046 17.2578 15.9053C17.3985 15.7647 17.4775 15.5739 17.4775 15.375C17.4836 14.2241 17.1954 13.0907 16.6401 12.0825C16.0848 11.0744 15.281 10.225 14.305 9.615V9.615Z" fill="white"/>
</svg>
